<?xml version="1.0" encoding="UTF-8"?><svg xmlns="http://www.w3.org/2000/svg" viewBox="0 0 299.33 74.83"><defs><style>.d{letter-spacing:-.02em;}.e{letter-spacing:-.02em;}.f,.g{fill:#800C3A;}.g{font-family:Kanit-Light, Kanit;font-size:10.76px;}.h{letter-spacing:-.04em;}</style></defs><g id="a"/><g id="b"><g id="c"><g><g><path class="f" d="M89.8,22.41h7.9l.32,2.91c3.12-2.36,6.53-3.54,10.24-3.54,2.02,0,3.62,.31,4.8,.92,1.18,.61,2.11,1.53,2.78,2.75,1.52-1.18,3.17-2.09,4.96-2.72,1.79-.63,3.85-.95,6.16-.95,3.46,0,6.01,.9,7.65,2.69,1.64,1.79,2.47,4.52,2.47,8.19v19.73h-8.41v-18.78c0-1.94-.42-3.35-1.26-4.24-.84-.89-2.19-1.33-4.05-1.33-1.18,0-2.33,.24-3.45,.73-1.12,.49-2.08,1.15-2.88,1.99,.21,.72,.32,1.58,.32,2.59v19.03h-7.97v-18.78c0-1.94-.34-3.35-1.01-4.24-.67-.89-1.88-1.33-3.6-1.33-2.15,0-4.34,1.07-6.58,3.22v21.12h-8.41V22.41Z"/><path class="f" d="M148.53,28.74h-4.49l.76-6.32h12.27v29.97h-8.54V28.74Zm-.7-18.53h9.29v6.7h-9.29v-6.7Z"/><path class="f" d="M166.33,50.99c-1.33-1.35-1.99-3.5-1.99-6.45V9.77h8.54V43.85c0,1.05,.2,1.78,.6,2.18,.4,.4,1.02,.6,1.87,.6,1.1,0,2.09-.15,2.97-.44v5.88c-.89,.34-1.75,.58-2.59,.73-.84,.15-1.86,.22-3.03,.22-2.91,0-5.03-.67-6.35-2.02Z"/><path class="f" d="M181.6,22.41h7.9l.32,2.91c3.12-2.36,6.53-3.54,10.24-3.54,2.02,0,3.62,.31,4.8,.92,1.18,.61,2.11,1.53,2.78,2.75,1.52-1.18,3.17-2.09,4.96-2.72,1.79-.63,3.85-.95,6.16-.95,3.46,0,6.01,.9,7.65,2.69,1.64,1.79,2.47,4.52,2.47,8.19v19.73h-8.41v-18.78c0-1.94-.42-3.35-1.26-4.24-.84-.89-2.19-1.33-4.05-1.33-1.18,0-2.33,.24-3.45,.73-1.12,.49-2.08,1.15-2.88,1.99,.21,.72,.32,1.58,.32,2.59v19.03h-7.97v-18.78c0-1.94-.34-3.35-1.01-4.24-.67-.89-1.88-1.33-3.6-1.33-2.15,0-4.34,1.07-6.58,3.22v21.12h-8.41V22.41Z"/><path class="f" d="M236.7,50.58c-2.04-1.62-3.07-3.91-3.07-6.86s1.06-5.36,3.19-7.11c2.13-1.75,5.19-2.62,9.2-2.62h8.85v-.82c0-1.26-.22-2.25-.66-2.97-.44-.72-1.22-1.24-2.34-1.58-1.12-.34-2.71-.51-4.77-.51-3.41,0-6.7,.53-9.86,1.58v-6.01c1.47-.59,3.21-1.05,5.22-1.39,2-.34,4.14-.51,6.42-.51,9.44,0,14.16,3.86,14.16,11.57v19.03h-7.4l-.44-2.72c-2.45,2.23-6.07,3.35-10.87,3.35-3.03,0-5.57-.81-7.62-2.43Zm14.79-4.11c1.41-.61,2.54-1.42,3.38-2.43v-4.74h-8.66c-3.33,0-4.99,1.37-4.99,4.11s1.81,3.98,5.44,3.98c1.81,0,3.42-.31,4.84-.92Z"/><path class="f" d="M278.59,37.15l-11.06-14.73h9.23l6.45,8.73,6.45-8.73h9.23l-11,14.73,11.44,15.24h-9.29l-6.83-9.17-6.83,9.17h-9.29l11.51-15.24Z"/></g><g><path class="f" d="M37.42,0C16.78,0,0,16.79,0,37.42s16.78,37.42,37.42,37.42,37.42-16.78,37.42-37.42S58.05,0,37.42,0Zm0,69.08c-17.46,0-31.66-14.2-31.66-31.66S19.96,5.76,37.42,5.76s31.66,14.2,31.66,31.66-14.2,31.66-31.66,31.66Z"/><path class="f" d="M58.35,21.96c-1.99,0-3.93,.44-5.8,1.21-1.95-6.79-7.91-11.75-14.95-11.75s-13.07,5.02-14.98,11.88c-1.97-.86-4.03-1.35-6.13-1.35h-2.88v15.19c0,14.48,10.68,26.27,23.81,26.27s23.81-11.78,23.81-26.27v-15.19h-2.88Zm-20.75-4.78c4.93,0,9.01,3.98,9.74,9.16-4.05,3.26-7.49,8.04-9.92,13.28-2.36-5.1-5.69-9.78-9.6-13.03,.63-5.3,4.77-9.41,9.78-9.41Zm17.88,19.97c0,11.31-8.1,20.51-18.05,20.51s-18.05-9.2-18.05-20.51v-8.93c6.29,2.12,12.84,10.72,15.26,20.66,.01,.05,.04,.1,.05,.15,.03,.1,.06,.2,.1,.29,.04,.08,.08,.17,.12,.25,.04,.08,.09,.16,.14,.24,.05,.08,.11,.15,.17,.23,.06,.07,.12,.14,.18,.2s.13,.13,.2,.18c.07,.06,.15,.12,.23,.17,.08,.05,.16,.1,.24,.14,.08,.04,.16,.08,.24,.12,.1,.04,.19,.07,.29,.1,.05,.01,.09,.04,.14,.05,.03,0,.07,0,.1,.01,.1,.02,.21,.03,.32,.04,.09,0,.18,.02,.26,.02,.09,0,.18,0,.28-.02,.1-.01,.2-.02,.3-.04,.03,0,.07,0,.1-.01,.05-.01,.1-.04,.15-.05,.1-.03,.2-.06,.29-.1,.08-.04,.16-.08,.24-.12,.08-.04,.16-.09,.24-.14,.08-.05,.15-.11,.22-.17,.07-.06,.14-.12,.2-.19,.06-.06,.12-.13,.18-.2,.06-.07,.12-.15,.17-.23,.05-.08,.1-.16,.14-.24,.04-.08,.08-.16,.12-.25,.04-.09,.07-.19,.1-.29,.01-.05,.04-.1,.05-.15,2.41-9.94,8.97-18.54,15.26-20.66v8.93Z"/></g><text class="g" transform="translate(89.8 66.76)"><tspan x="0" y="0">dried p</tspan><tspan class="h" x="35.4" y="0">r</tspan><tspan class="e" x="38.74" y="0">o</tspan><tspan x="44.75" y="0">du</tspan><tspan class="d" x="57.07" y="0">c</tspan><tspan x="62.08" y="0">ts</tspan></text></g></g></g></svg>
